REM MD5 87f139ec42cd8e28e046de97f4ae3cd8
FILE "Demo Disc (Europe) (En,Fr,De,Es,It).bin" BINARY
  TRACK 01 MODE2/2352
    INDEX 01 00:00:00
  TRACK 02 AUDIO
    INDEX 00 43:10:29
    INDEX 01 43:12:29
  TRACK 03 AUDIO
    INDEX 00 46:52:37
    INDEX 01 46:54:37
REM LEADOUT 49:55:69
